<svg width="48" height="50" viewBox="0 0 48 50" fill="none" xmlns="http://www.w3.org/2000/svg">
<path d="M35.7449 1.44248C34.5424 0.239918 32.4458 0.239918 31.2433 1.44248C1.58628 31.1014 28.7931 3.89332 2.17587 30.5108C1.98884 30.6982 2.11793 30.5607 0.0311882 36.7996C-0.123204 37.2675 0.322013 37.7069 0.785931 37.5543C7.04574 35.4625 6.88914 35.596 7.07541 35.4096C12.872 29.6127 30.353 12.1311 36.1428 6.3422C37.3843 5.10152 37.3843 3.08123 36.1428 1.84056L35.7449 1.44248ZM30.9268 9.86819L6.65311 34.1419L3.4434 30.9329L27.7171 6.65924C27.7974 6.73918 31.0625 10.0035 30.9271 9.86819H30.9268ZM1.53831 36.0477L2.86151 32.0415L5.54453 34.7245L1.53831 36.0477ZM31.7718 9.02323C31.6918 8.94329 28.4268 5.67899 28.5621 5.81428L30.6066 3.77014C30.6865 3.85009 33.9508 7.11514 33.8155 6.97985L31.7718 9.02323ZM35.2982 5.49676L34.6605 6.13452C34.5805 6.05457 31.3162 2.78953 31.4515 2.92481L32.0886 2.28706C32.8385 1.53562 34.1485 1.53489 34.9007 2.28706L35.2982 2.6846C36.0735 3.46024 36.0735 4.72141 35.2982 5.49671L35.2982 5.49676Z" fill="#07A8D7"/>
<path d="M47.821 13.5191L41.6411 7.33932C41.4171 7.11525 41.0203 7.11525 40.7962 7.33932L5.87415 42.2623C5.7623 42.3741 5.69922 42.526 5.69922 42.6848C5.69922 42.8436 5.7623 42.995 5.87415 43.1072L12.0547 49.2871C12.1713 49.4037 12.3239 49.462 12.4772 49.462C12.6305 49.462 12.7831 49.4037 12.8997 49.2871L47.8208 14.3641C48.054 14.1308 48.054 13.7528 47.8208 13.5191H47.821ZM43.5184 16.9771L40.5475 14.0055L39.7025 14.8504L42.6735 17.822L39.638 20.8575L36.6671 17.8859L35.8221 18.7308L38.7931 21.7024L35.7576 24.7379L32.7867 21.7667L31.9417 22.6116L34.9127 25.5829L31.8776 28.6183L28.9063 25.6471L28.0614 26.492L31.0326 29.4633L27.9972 32.4987L25.0259 29.5275L24.181 30.3724L27.1522 33.3437L24.1168 36.3795L21.1458 33.4079L20.3008 34.2529L23.2718 37.2245L20.2363 40.2599L17.2654 37.2883L16.4204 38.1333L19.3917 41.1053L16.3566 44.1403L13.385 41.1687L12.54 42.0137L15.5116 44.9853L12.4762 48.0208L7.14055 42.6859L41.2186 8.60694L46.5534 13.9418L43.5184 16.9771Z" fill="#979797"/>
</svg>
