<svg width="44" height="45" viewBox="0 0 44 45" fill="none" xmlns="http://www.w3.org/2000/svg">
<path d="M26.5011 44.5469H17.7409L17.5541 43.3262C17.5473 43.287 17.3333 41.8819 17.0567 39.8675C15.8496 39.5021 14.684 39.0036 13.58 38.3827C12.1956 39.4313 11.1675 40.1914 10.7677 40.4853L9.74669 41.2331L3.55499 35.0439L4.28408 34.0484C4.28647 34.0449 5.17918 32.8266 6.5506 31.0194C6.02904 29.9844 5.61327 28.9002 5.30878 27.7845C3.07962 27.4807 1.49081 27.2398 1.44586 27.2313L0.242188 27.0469V18.2894L1.46154 18.1012C1.94261 18.0281 3.52225 17.7906 5.64732 17.5028C5.97563 16.5515 6.38866 15.6275 6.87826 14.7449C5.33944 12.7233 4.28783 11.2903 4.28069 11.2805L3.555 10.2918L9.74836 4.09935L10.7435 4.83015C10.75 4.83457 12.2745 5.95387 14.3937 7.57134C15.2035 7.17056 16.0459 6.83204 16.908 6.56154C17.2689 3.87278 17.5544 2.01379 17.5561 2.0002L17.7408 0.787292H26.501L26.6885 2.00699C26.6885 2.00699 26.9719 3.84421 27.3356 6.56119C28.198 6.83133 29.0397 7.16985 29.8495 7.57099C31.6911 6.16482 33.0809 5.13873 33.4806 4.84408L34.4945 4.10036L40.6882 10.2928L39.9571 11.2879C39.9503 11.2981 38.9119 12.7131 37.3645 14.7456C37.8551 15.6278 38.2678 16.5521 38.5955 17.5038C40.8195 17.8048 42.4444 18.0508 42.7642 18.0998L43.9996 18.2907V27.0491L42.7788 27.2359C42.7611 27.2397 41.1802 27.4799 38.9316 27.7861C38.6278 28.9017 38.2117 29.9859 37.6901 31.0202C39.0353 32.7911 39.9512 34.039 39.9784 34.0809L40.6861 35.045L34.4954 41.233L33.4492 40.4672C33.2131 40.293 32.1502 39.5098 30.6618 38.3826C29.5581 39.0035 28.3932 39.502 27.1861 39.8677C26.8979 41.9614 26.688 43.3274 26.6866 43.3355L26.5011 44.5469ZM18.9979 43.0836H25.2464C25.276 42.889 25.507 41.3679 25.8023 39.198L25.8676 38.7186L26.3347 38.5907C27.7378 38.2082 29.0858 37.6312 30.3401 36.8776L30.7651 36.6221L31.1601 36.9222C32.8408 38.2001 34.0635 39.1014 34.3191 39.2898L34.3494 39.3123L38.7675 34.8969C38.626 34.7023 37.6312 33.3506 36.2482 31.5369L35.9624 31.1613L36.1862 30.7462C36.831 29.5483 37.3192 28.2735 37.6373 26.9552L37.7543 26.4683L38.2507 26.4016C40.6734 26.0747 42.3698 25.8182 42.5395 25.792V19.5448C42.1404 19.4839 40.3475 19.2131 37.9499 18.8926L37.4889 18.831L37.3494 18.387C36.9851 17.2285 36.4846 16.1102 35.862 15.062L35.6099 14.6371L35.9093 14.2444C37.5574 12.0868 38.6661 10.5772 38.7675 10.4391L34.35 6.02269C33.8866 6.36359 32.3611 7.49175 30.3739 9.01394L30.0013 9.29938L29.5863 9.07926C28.5982 8.55532 27.5511 8.13548 26.4753 7.83099L26.0126 7.69967L25.9493 7.22267C25.5812 4.44202 25.2767 2.44429 25.2474 2.24997L18.9979 2.25099C18.9628 2.4803 18.66 4.47945 18.2956 7.22404L18.2327 7.70104L17.77 7.83236C16.6936 8.1372 15.647 8.55703 14.6586 9.08063L14.2439 9.30007L13.8714 9.01463C11.6913 7.34551 10.065 6.14828 9.89489 6.02338L5.47848 10.4398C5.61014 10.6194 6.73354 12.146 8.33665 14.2451L8.63672 14.6377L8.38462 15.0627C7.76236 16.1119 7.26185 17.2306 6.89718 18.3887L6.75735 18.832L6.29634 18.8936C3.95562 19.2066 2.19391 19.4717 1.70948 19.5451L1.70608 19.5455V25.7929C1.91158 25.8236 3.59059 26.0784 5.99385 26.4023L6.48989 26.469L6.60727 26.9558C6.92538 28.2738 7.41394 29.5489 8.05935 30.7469L8.28288 31.1619L7.99743 31.5375C6.57462 33.406 5.58999 34.7448 5.47807 34.8976L9.89553 39.3129C10.3654 38.9673 11.5334 38.1038 13.0848 36.9239L13.4798 36.6238L13.905 36.8793C15.159 37.6332 16.5067 38.2093 17.9108 38.5916L18.3779 38.7189L18.4432 39.1989C18.7385 41.3828 18.9709 42.9111 18.9978 43.0836L18.9979 43.0836Z" fill="#07A8D7"/>
<path d="M22.0798 29.723C18.2121 29.723 15.0654 26.5756 15.0654 22.707C15.0654 18.8393 18.2125 15.6926 22.0798 15.6926C25.947 15.6926 29.0944 18.8397 29.0944 22.707C29.0944 26.5756 25.947 29.723 22.0798 29.723ZM22.0798 17.1559C19.0187 17.1559 16.5287 19.6459 16.5287 22.7069C16.5287 25.7685 19.0188 28.26 22.0798 28.26C25.1408 28.26 27.6311 25.7692 27.6311 22.7069C27.6315 19.6462 25.141 17.1559 22.0798 17.1559Z" fill="#979797"/>
</svg>
