<svg width="293" height="48" viewBox="0 0 293 48" fill="none" xmlns="http://www.w3.org/2000/svg">
<path d="M266.491 19.5346C266.491 21.3191 265.288 22.302 263.113 22.302H260.221V16.71H263.113C265.288 16.71 266.491 17.7119 266.491 19.5346ZM270.547 19.4201C270.547 15.6984 267.56 12.9883 263.447 12.9883H256.232V35.0129H260.231V25.8519H261.901L268.399 35.0129H273.209L266.271 25.4034C268.905 24.4587 270.547 22.1875 270.547 19.4201Z" fill="#E53B10"/>
<path d="M174.052 23.9989C174.052 28.2455 170.96 31.4423 166.856 31.4423C162.753 31.4423 159.661 28.2455 159.661 23.9989C159.661 19.762 162.753 16.5556 166.856 16.5556C170.96 16.5556 174.052 19.7524 174.052 23.9989ZM178.107 23.9989C178.107 17.6912 173.164 12.748 166.856 12.748C160.549 12.748 155.605 17.6912 155.605 23.9989C155.605 30.3067 160.549 35.2594 166.856 35.2594C173.164 35.2498 178.107 30.3067 178.107 23.9989Z" fill="#E53B10"/>
<path d="M132.683 28.4284C132.683 30.2225 131.452 31.2531 129.305 31.2531H124.81V25.537H129.305C131.423 25.5465 132.683 26.6249 132.683 28.4284ZM131.223 19.3915C131.223 21.071 130.097 22.0634 128.217 22.0634H124.81V16.71H128.217C130.431 16.71 131.223 18.0936 131.223 19.3915ZM133.465 23.2467C134.677 22.2447 135.25 20.9183 135.25 19.1147C135.25 15.5648 132.482 12.9883 128.665 12.9883H120.812V35.0129H129.305C133.666 35.0129 136.7 32.3696 136.7 28.5811C136.71 26.1477 135.565 24.2678 133.465 23.2467Z" fill="#E53B10"/>
<path d="M41.4346 33.8004H17.5682L24.1431 22.7213L26.4334 26.4239L24.3435 29.9451H34.6306L22.1296 9.11332L24.4485 5.45845L41.4346 33.8004ZM21.1372 17.8354L11.165 33.8004H6.62266L18.9042 14.2187L21.1372 17.8354ZM48 24C48 10.7451 37.2549 0 24 0C10.7451 0 0 10.7451 0 24C0 37.2549 10.7451 48 24 48C37.2549 48 48 37.2549 48 24Z" fill="#E53B10"/>
<path d="M69.0514 21.7564L67.5341 21.1647C65.8832 20.5063 64.5281 19.8669 64.5281 18.7886C64.5281 17.3477 66.0168 16.4888 67.4577 16.4888C68.9273 16.4888 69.8243 16.9946 70.6736 18.3019L71.103 18.9604L74.5384 17.0041L74.0995 16.2789C72.7444 14.0363 70.3492 12.748 67.5341 12.748C63.4498 12.748 60.3675 15.315 60.3675 18.7123C60.3675 22.1476 63.0585 23.5218 65.8259 24.6478L67.305 25.2204C69.5094 26.1174 70.8645 26.7473 70.8645 28.4172C70.8645 30.1254 69.1468 31.5186 67.0378 31.5186C65.1388 31.5186 63.6024 30.2685 63.3162 28.4745L63.173 27.587L59.041 28.6176L59.2223 29.4097C60.043 32.9691 63.1349 35.2689 67.0951 35.2689C71.5516 35.2689 75.0442 32.1675 75.0442 28.2073C75.0156 24.3997 71.9333 22.8824 69.0514 21.7564Z" fill="#E53B10"/>
<path d="M228.131 35.0129H232.129V25.7851H235.154L237.616 21.9107H232.129V16.9199H240.785L243.275 12.9883H228.131V35.0129Z" fill="#E53B10"/>
<path d="M290.053 31.0813H280.71V29.6595H280.701L280.71 26.1H286.255L286.894 26.0905L284.394 22.1589H280.71V16.9294L290.186 16.9199V12.9883H280.768H276.779H276.712V22.1589V26.1V35.0129H289.967L292.553 35.0034L290.053 31.0813Z" fill="#E53B10"/>
<path d="M192.992 16.5573C194.967 16.5573 196.847 17.3589 198.154 18.7617L198.326 18.9526L200.435 15.6317C200.33 15.5363 200.235 15.4313 200.12 15.3359C198.641 14.0285 196.838 13.2078 194.815 12.8929C194.681 12.8738 194.547 12.8547 194.414 12.8357C194.261 12.8166 194.108 12.7975 193.956 12.7879C193.631 12.7593 193.307 12.7402 192.982 12.7402C192.963 12.7402 192.935 12.7402 192.916 12.7402C186.636 12.7784 181.731 17.7025 181.731 23.9911C181.731 30.2798 186.636 35.2134 192.916 35.242C192.935 35.242 192.963 35.242 192.982 35.242C193.307 35.242 193.622 35.2229 193.937 35.2039C194.089 35.1943 194.252 35.1752 194.404 35.1561C194.557 35.1371 194.71 35.118 194.862 35.0893C196.876 34.7744 198.66 33.9442 200.139 32.6464C200.216 32.5796 200.292 32.5033 200.368 32.4365L198.336 29.0488H198.326L198.154 29.2396C196.847 30.6424 194.958 31.444 192.992 31.444C188.889 31.444 185.797 28.2472 185.797 24.0007C185.797 19.7542 188.889 16.5573 192.992 16.5573Z" fill="#E53B10"/>
<path d="M84.2631 31.0431V12.9883H80.2646V35.0129H93.3382L94.5978 34.9938L92.2217 31.0431H84.2631Z" fill="#E53B10"/>
<path d="M94.75 16.9199H100.304V35.0129H104.302V16.9199H109.885V12.9883H94.75V16.9199Z" fill="#E53B10"/>
<path d="M145.337 31.0431V12.9883H141.348V35.0129H154.412L155.681 34.9938L153.305 31.0431H145.337Z" fill="#E53B10"/>
<path d="M213.062 27.7326L219.942 35.0137H225.152L215.609 24.8984L213.062 27.7326Z" fill="#E53B10"/>
<path d="M222.241 12.9883H217.431L208.7 22.531V12.9883H204.711V35.0129H208.7L208.671 27.9799L222.241 12.9883Z" fill="#E53B10"/>
<path d="M250.974 12.9883H246.976V35.0129H250.974V12.9883Z" fill="#E53B10"/>
</svg>
