<svg width="268" height="60" viewBox="0 0 268 60" fill="none" xmlns="http://www.w3.org/2000/svg">
<path d="M232.911 32.9492C232.911 36.8156 230.605 39.1228 226.744 39.1228C222.861 39.1228 220.534 36.8156 220.534 32.9492V16.1218H215.495V32.8363C215.495 39.4403 220.013 43.8782 226.737 43.8782C233.439 43.8782 237.943 39.4403 237.943 32.8363V16.1218H232.904V32.9492H232.911ZM262.675 43.8288H268L254.481 16.1712L240.962 43.8288H246.28L249.064 37.9516H255.659L253.503 33.429H251.219L254.481 26.5922L262.675 43.8288ZM152.319 43.8288H157.637L160.42 37.9516H167.023L164.867 33.429H162.583L165.845 26.5922L174.039 43.8217H179.364L165.845 16.1642L152.319 43.8288ZM195.06 16.0301C187.337 16.0301 181.084 22.2178 181.084 29.8518C181.084 37.4859 187.344 43.6736 195.06 43.6736C195.873 43.6736 196.673 43.603 197.451 43.469L194.724 38.9746C189.949 38.7912 186.123 34.7836 186.123 29.8589C186.123 24.8142 190.127 20.722 195.06 20.722C199.999 20.722 204.003 24.8142 204.003 29.8589C204.003 31.8556 203.368 33.6971 202.304 35.1999L199.82 31.1148L197.044 35.4327L198.721 38.1844C198.714 38.1844 198.714 38.1914 198.707 38.1914L201.184 42.2766C201.191 42.2695 201.198 42.2695 201.205 42.2695L202.247 43.977H207.651L204.981 39.5884C207.494 37.0908 209.05 33.6548 209.05 29.8518C209.042 22.2178 202.783 16.0301 195.06 16.0301ZM30.3496 0C13.5902 0 0 13.4337 0 30C0 46.5663 13.5902 60 30.3496 60C47.109 60 60.6992 46.5663 60.6992 30C60.6992 13.4337 47.109 0 30.3496 0ZM8.37255 42.2484L23.9042 17.7728L26.7308 22.2954L14.1184 42.2484H8.37255ZM22.2197 42.2484L30.5352 28.3913L33.4259 33.0198L30.7779 37.4224H43.7828L27.9799 11.3876L30.9135 6.81562L52.398 42.2413H22.2197V42.2484ZM119.485 21.2159H126.459V43.6736H131.477V21.2159H138.486V16.3335H119.485V21.2159ZM106.316 38.7488V16.3335H101.299V43.6736H117.715L119.3 43.6524L116.316 38.7559H106.316V38.7488ZM87.2087 27.2131L85.31 26.4793C83.2401 25.6609 81.527 24.8706 81.527 23.523C81.527 21.738 83.3971 20.6726 85.203 20.6726C87.0374 20.6726 88.1723 21.3076 89.2358 22.9233L89.7711 23.7347L94.0823 21.3006L93.5256 20.3975C91.8196 17.6176 88.8075 16.023 85.2743 16.023C80.1423 16.023 76.2737 19.2051 76.2737 23.4243C76.2737 27.6929 79.657 29.4003 83.1259 30.7902L84.9817 31.5028C87.7511 32.6105 89.4499 33.4007 89.4499 35.4751C89.4499 37.5988 87.2872 39.3274 84.6391 39.3274C82.248 39.3274 80.3279 37.7752 79.971 35.5456L79.7926 34.4379L74.6106 35.715L74.839 36.7027C75.874 41.1195 79.7497 43.9699 84.7247 43.9699C90.3207 43.9699 94.7104 40.1246 94.7104 35.214C94.7033 30.5009 90.8346 28.6171 87.2087 27.2131Z" fill="#07A8D7"/>
</svg>
