<svg width="20" height="20" viewBox="0 0 20 20" fill="none" xmlns="http://www.w3.org/2000/svg">
<path fill-rule="evenodd" clip-rule="evenodd" d="M10.5481 1.03914C15.1572 5.06375 17.5 8.57789 17.5 11.6669C17.5 16.0413 14.0858 19.1669 10 19.1669C5.91421 19.1669 2.5 16.0413 2.5 11.6669C2.5 8.57789 4.84276 5.06375 9.45189 1.03914L10 0.560547L10.5481 1.03914ZM4.16667 11.6669C4.16667 15.0864 6.80343 17.5002 10 17.5002C13.1966 17.5002 15.8333 15.0864 15.8333 11.6669C15.8333 9.2925 13.9112 6.30557 10 2.78069C6.08884 6.30557 4.16667 9.2925 4.16667 11.6669ZM10 15.0002V16.6669C12.7614 16.6669 15 14.4283 15 11.6669H13.3333C13.3333 13.5078 11.8409 15.0002 10 15.0002Z" fill="#07A8D7"/>
</svg>
