<svg width="111" height="138" viewBox="0 0 111 138" fill="none" xmlns="http://www.w3.org/2000/svg">
<rect width="111" height="138" fill="#3F3F40"/>
<g clip-path="url(#clip0_250_20384)">
<path d="M52.8308 57.3808L50.3791 53.4702L36.908 74.6345H41.8959L52.8308 57.3808ZM56.3453 70.4629L58.6397 66.6582L56.1304 62.653L48.9211 74.6345H75.0958L56.4604 44L53.9204 47.9522L67.6217 70.4629H56.3453ZM43.845 84.7968H46.3619V92.879H48.1729V84.7968H50.7052V83.0381H43.845V84.7968ZM77.3365 89.1423C77.7278 88.7717 77.7777 88.2725 77.7777 87.917C77.7777 87.1568 77.4401 85.886 75.1649 85.886H72.3064V92.879H75.5102C77.206 92.879 78.219 92.0885 78.219 90.7648C78.2151 90.0387 77.9043 89.4676 77.3365 89.1423ZM74.033 87.3988H75.2454C75.7749 87.3988 76.0473 87.6144 76.0473 88.038C76.0473 88.4389 75.7749 88.6507 75.2454 88.6658H74.033V87.3988ZM75.56 91.3624H74.033V89.9592H75.5639C76.3926 89.9592 76.4885 90.3639 76.4885 90.6665C76.4847 91.1241 76.1816 91.351 75.56 91.3624ZM84.2734 85.886V86.2831C83.7785 85.9503 83.1838 85.7763 82.5392 85.7763C80.4635 85.7763 78.8981 87.327 78.8981 89.3806C78.8981 91.4342 80.4635 92.9849 82.5392 92.9849C83.1953 92.9849 83.79 92.8147 84.2734 92.4932V92.879H86.0038V85.886H84.2734ZM84.2734 90.5039C83.9089 91.0258 83.2528 91.351 82.5507 91.351C81.4572 91.351 80.663 90.5228 80.663 89.3844C80.663 88.2422 81.4572 87.4139 82.5507 87.4139C83.2528 87.4139 83.9089 87.7392 84.2734 88.2611V90.5039ZM31.1145 84.6228C32.0123 84.6228 32.8679 84.9821 33.4626 85.6099L33.5432 85.6931L34.5024 84.2068C34.4563 84.1652 34.4103 84.116 34.3604 84.0744C33.6851 83.4882 32.8679 83.1176 31.9509 82.9814C31.8895 82.9738 31.8281 82.9625 31.7667 82.9549C31.6977 82.9474 31.6286 82.9398 31.5595 82.9322C31.4137 82.9209 31.2679 82.9133 31.1183 82.9133C31.1068 82.9133 31.0991 82.9133 31.0876 82.9133C28.2292 82.9322 26 85.1409 26 87.9548C26 90.7724 28.2292 92.9811 31.0838 92.9962C31.0953 92.9962 31.103 92.9962 31.1145 92.9962C31.2603 92.9962 31.4061 92.9887 31.548 92.9773C31.6209 92.9697 31.69 92.966 31.759 92.9546C31.8281 92.9471 31.8972 92.9357 31.9662 92.9244C32.8794 92.7844 33.6928 92.4138 34.3642 91.8276C34.3988 91.7973 34.4333 91.7633 34.4717 91.733L33.547 90.2164H33.5432L33.4626 90.2996C32.8679 90.9274 32.0123 91.2867 31.1145 91.2867C29.2498 91.2867 27.8455 89.8534 27.8455 87.9548C27.8417 86.0562 29.2498 84.6228 31.1145 84.6228ZM70.9252 85.8898H68.7804L66.5589 88.2838V85.8898H64.84V92.8828H66.5627L66.5512 90.6589L66.9387 90.2391L69.5363 92.8865H71.8153L68.0591 89.0213L70.9252 85.8898ZM54.0049 92.8752H55.9501L56.9669 90.7346H58.8392H59.3802L58.5937 89.0856H58.3405H57.7611L58.9505 86.597L59.8176 88.4162L60.8996 90.6854L61.9471 92.879H63.8923L58.9505 82.8036L54.0049 92.8752ZM38.0936 86.2642L34.8515 92.879H36.8121L39.0183 88.2422L38.5694 87.2627L38.0936 86.2642ZM38.8802 84.6644L40.3995 87.8413L40.3957 87.8451L42.7975 92.879H44.7428L39.7972 82.7923L38.8802 84.6644Z" fill="white"/>
</g>
<defs>
<clipPath id="clip0_250_20384">
<rect width="60" height="49" fill="white" transform="translate(26 44)"/>
</clipPath>
</defs>
</svg>
