<svg width="19" height="19" viewBox="0 0 19 19" fill="none" xmlns="http://www.w3.org/2000/svg">
<path d="M9.49967 1.58301C6.43909 1.58301 3.95801 4.06409 3.95801 7.12467C3.95801 12.6663 9.49967 17.4163 9.49967 17.4163C9.49967 17.4163 15.0413 12.6663 15.0413 7.12467C15.0413 4.06409 12.5603 1.58301 9.49967 1.58301ZM9.49967 16.3318C8.17363 15.0283 4.74967 11.2615 4.74967 7.12467C4.74967 4.50545 6.88045 2.37467 9.49967 2.37467C12.1189 2.37467 14.2497 4.50545 14.2497 7.12467C14.2497 11.2619 10.8253 15.0287 9.49967 16.3318Z" fill="#07A8D7" stroke="#07A8D7" stroke-width="0.7"/>
<path d="M9.49967 7.91634C9.9369 7.91634 10.2913 7.5619 10.2913 7.12467C10.2913 6.68745 9.9369 6.33301 9.49967 6.33301C9.06245 6.33301 8.70801 6.68745 8.70801 7.12467C8.70801 7.5619 9.06245 7.91634 9.49967 7.91634Z" fill="#07A8D7" stroke="#07A8D7" stroke-width="0.7"/>
</svg>
