<svg width="15" height="15" viewBox="0 0 15 15" fill="none" xmlns="http://www.w3.org/2000/svg">
<path d="M7.4998 4.9502C6.1123 4.9502 4.9873 6.07519 4.9873 7.46269C4.9873 8.85019 6.1123 9.97519 7.4998 9.97519C8.8873 9.97519 10.0123 8.85019 10.0123 7.46269C10.0123 6.07519 8.8873 4.9502 7.4998 4.9502Z" fill="#3F3F40"/>
<path d="M10.125 0H4.875C2.2125 0 0 2.2125 0 4.875V10.0875C0 12.7875 2.2125 14.9625 4.875 14.9625H10.0875C12.7875 14.9625 14.9625 12.75 14.9625 10.0875V4.875C15 2.2125 12.7875 0 10.125 0ZM7.5 11.4C5.3625 11.4 3.6 9.675 3.6 7.5C3.6 5.325 5.3625 3.6 7.5 3.6C9.6375 3.6 11.4 5.325 11.4 7.5C11.4 9.6375 9.675 11.4 7.5 11.4ZM11.325 4.5375C10.8 4.5375 10.3875 4.0875 10.3875 3.6C10.3875 3.1125 10.8375 2.625 11.325 2.625C11.85 2.625 12.2625 3.075 12.2625 3.5625C12.2625 4.125 11.85 4.5375 11.325 4.5375Z" fill="#3F3F40"/>
</svg>
