<svg width="163" height="28" viewBox="0 0 163 28" fill="none" xmlns="http://www.w3.org/2000/svg">
<g clip-path="url(#clip0_285_10681)">
<path d="M48.2505 5.49833H55.0559V27.668H59.9526V5.49833H66.7996V0.674324H48.2505V5.49833ZM138.807 17.4183C139.865 16.4016 139.99 15.0322 139.99 14.0571C139.99 11.9822 139.077 8.48611 132.935 8.48611H125.206V27.668H133.869C138.454 27.668 141.193 25.4998 141.193 21.8688C141.183 19.877 140.342 18.3105 138.807 17.4183ZM129.875 12.6358H133.153C134.595 12.6358 135.321 13.2271 135.321 14.389C135.321 15.4887 134.595 16.0697 133.153 16.1112H129.875V12.6358ZM134.004 23.508H129.875V19.6591H134.014C136.255 19.6591 136.514 20.7692 136.514 21.5991C136.504 22.8544 135.684 23.4768 134.004 23.508ZM157.564 8.48611V9.5754C156.225 8.66247 154.617 8.18525 152.874 8.18525C147.262 8.18525 143.029 12.4387 143.029 18.0719C143.029 23.7051 147.262 27.9585 152.874 27.9585C154.648 27.9585 156.256 27.4917 157.564 26.6099V27.668H162.242V8.48611H157.564ZM157.564 21.153C156.578 22.595 154.804 23.4768 152.906 23.4768C149.949 23.4768 147.801 21.2049 147.801 18.0719C147.801 14.9389 149.949 12.6669 152.906 12.6669C154.804 12.6669 156.578 13.5591 157.564 14.9907V21.153ZM13.8288 5.03149C16.2564 5.03149 18.5698 6.01704 20.1778 7.73916L20.3957 7.96739H20.4061L22.9996 3.89033C22.8751 3.77621 22.7506 3.64135 22.6158 3.52723C20.7899 1.91923 18.5802 0.912931 16.1008 0.529085C15.9348 0.497962 15.7688 0.477214 15.6028 0.456465C15.4161 0.435717 15.2293 0.414968 15.0426 0.39422C14.6484 0.363097 14.2542 0.342349 13.8496 0.342349C13.8185 0.342349 13.7977 0.342349 13.7666 0.342349C6.02742 0.383846 0 6.44239 0 14.1712C0 21.9 6.02742 27.9585 13.7458 28C13.777 28 13.7977 28 13.8288 28C14.223 28 14.6173 27.9793 15.0011 27.9481C15.1982 27.9274 15.385 27.917 15.5717 27.8859C15.7584 27.8651 15.9452 27.834 16.1319 27.8029C18.601 27.419 20.8003 26.4024 22.6158 24.7944C22.7092 24.7114 22.8025 24.618 22.9063 24.535L20.4061 20.375H20.3853L20.1675 20.6032C18.5595 22.3253 16.246 23.3109 13.8184 23.3109C8.77658 23.3109 4.96925 19.379 4.96925 14.1712C4.97962 8.95294 8.78696 5.03149 13.8288 5.03149ZM121.472 8.49648H115.672L109.666 15.0634V8.49648H105.018V27.6784H109.676L109.645 21.568L110.693 20.4165L117.716 27.6784H123.878L113.722 17.076L121.472 8.49648ZM75.7214 27.6576H80.9811L83.7303 21.7858H88.7929H90.2556L88.1289 17.2627H87.4442H85.8777L89.0937 10.4365L91.4383 15.4265L94.3638 21.651L97.196 27.668H102.456L89.0834 0.0207484L75.7214 27.6576ZM32.6995 9.52353L23.9333 27.668H29.2345L35.1893 14.9492L33.9755 12.2727L32.6995 9.52353ZM34.8262 5.13523L38.9344 13.8496L38.924 13.8599L45.4183 27.668H50.678L37.3057 0L34.8262 5.13523Z" fill="#07A8D7"/>
</g>
<defs>
<clipPath id="clip0_285_10681">
<rect width="162.232" height="28" fill="white"/>
</clipPath>
</defs>
</svg>
