<svg width="40" height="40" viewBox="0 0 40 40" fill="none" xmlns="http://www.w3.org/2000/svg">
<path d="M0 20C0 8.95431 8.95431 0 20 0V0C31.0457 0 40 8.95431 40 20V20C40 31.0457 31.0457 40 20 40V40C8.95431 40 0 31.0457 0 20V20Z" fill="white"/>
<path fill-rule="evenodd" clip-rule="evenodd" d="M20.5481 11.039C25.1572 15.0636 27.5 18.5777 27.5 21.6667C27.5 26.0411 24.0858 29.1667 20 29.1667C15.9142 29.1667 12.5 26.0411 12.5 21.6667C12.5 18.5777 14.8428 15.0636 19.4519 11.039L20 10.5604L20.5481 11.039ZM14.1667 21.6667C14.1667 25.0862 16.8034 27.5 20 27.5C23.1966 27.5 25.8333 25.0862 25.8333 21.6667C25.8333 19.2923 23.9112 16.3054 20 12.7805C16.0888 16.3054 14.1667 19.2923 14.1667 21.6667ZM20 25V26.6667C22.7614 26.6667 25 24.4281 25 21.6667H23.3333C23.3333 23.5076 21.8409 25 20 25Z" fill="#07A8D7"/>
<path d="M20 38.5C9.78273 38.5 1.5 30.2173 1.5 20H-1.5C-1.5 31.8741 8.12588 41.5 20 41.5V38.5ZM38.5 20C38.5 30.2173 30.2173 38.5 20 38.5V41.5C31.8741 41.5 41.5 31.8741 41.5 20H38.5ZM20 1.5C30.2173 1.5 38.5 9.78273 38.5 20H41.5C41.5 8.12588 31.8741 -1.5 20 -1.5V1.5ZM20 -1.5C8.12588 -1.5 -1.5 8.12588 -1.5 20H1.5C1.5 9.78273 9.78273 1.5 20 1.5V-1.5Z" fill="#E8E9E9"/>
</svg>
