<svg width="40" height="40" viewBox="0 0 40 40" fill="none" xmlns="http://www.w3.org/2000/svg">
<rect x="0.75" y="0.75" width="38.5" height="38.5" rx="19.25" fill="white"/>
<path d="M24 20H33M33 20L30 23M33 20L30 17" stroke="#7E7E7E" stroke-width="1.5"/>
<path d="M7 20L16 20" stroke="#07A8D7" stroke-width="1.5"/>
<mask id="path-4-inside-1_1567_38011" fill="white">
<path d="M20 25C18.6739 25 17.4021 24.4732 16.4645 23.5355C15.5268 22.5979 15 21.3261 15 20C15 18.6739 15.5268 17.4021 16.4645 16.4645C17.4021 15.5268 18.6739 15 20 15V16.7178C19.1295 16.7178 18.2947 17.0636 17.6791 17.6791C17.0636 18.2947 16.7178 19.1295 16.7178 20C16.7178 20.8705 17.0636 21.7053 17.6791 22.3209C18.2947 22.9364 19.1295 23.2822 20 23.2822V25Z"/>
</mask>
<path d="M20 25C18.6739 25 17.4021 24.4732 16.4645 23.5355C15.5268 22.5979 15 21.3261 15 20C15 18.6739 15.5268 17.4021 16.4645 16.4645C17.4021 15.5268 18.6739 15 20 15V16.7178C19.1295 16.7178 18.2947 17.0636 17.6791 17.6791C17.0636 18.2947 16.7178 19.1295 16.7178 20C16.7178 20.8705 17.0636 21.7053 17.6791 22.3209C18.2947 22.9364 19.1295 23.2822 20 23.2822V25Z" fill="white" stroke="#07A8D7" stroke-width="3" mask="url(#path-4-inside-1_1567_38011)"/>
<mask id="path-5-inside-2_1567_38011" fill="white">
<path d="M20 15C21.3261 15 22.5979 15.5268 23.5355 16.4645C24.4732 17.4021 25 18.6739 25 20C25 21.3261 24.4732 22.5979 23.5355 23.5355C22.5979 24.4732 21.3261 25 20 25L20 23.2822C20.8705 23.2822 21.7053 22.9364 22.3209 22.3209C22.9364 21.7053 23.2822 20.8705 23.2822 20C23.2822 19.1295 22.9364 18.2947 22.3209 17.6791C21.7053 17.0636 20.8705 16.7178 20 16.7178L20 15Z"/>
</mask>
<path d="M20 15C21.3261 15 22.5979 15.5268 23.5355 16.4645C24.4732 17.4021 25 18.6739 25 20C25 21.3261 24.4732 22.5979 23.5355 23.5355C22.5979 24.4732 21.3261 25 20 25L20 23.2822C20.8705 23.2822 21.7053 22.9364 22.3209 22.3209C22.9364 21.7053 23.2822 20.8705 23.2822 20C23.2822 19.1295 22.9364 18.2947 22.3209 17.6791C21.7053 17.0636 20.8705 16.7178 20 16.7178L20 15Z" fill="white" stroke="#7E7E7E" stroke-width="3" mask="url(#path-5-inside-2_1567_38011)"/>
<rect x="0.75" y="0.75" width="38.5" height="38.5" rx="19.25" stroke="#E8E9E9" stroke-width="1.5"/>
</svg>
