<svg width="40" height="40" viewBox="0 0 40 40" fill="none" xmlns="http://www.w3.org/2000/svg">
<rect x="0.75" y="0.75" width="38.5" height="38.5" rx="19.25" fill="white"/>
<path d="M25 20H34M34 20L31 23M34 20L31 17" stroke="#7E7E7E" stroke-width="1.5"/>
<path d="M6 20L15 20" stroke="#07A8D7" stroke-width="1.5"/>
<mask id="path-4-inside-1_1567_38019" fill="white">
<path d="M19 25C17.6739 25 16.4021 24.4732 15.4645 23.5355C14.5268 22.5979 14 21.3261 14 20C14 18.6739 14.5268 17.4021 15.4645 16.4645C16.4021 15.5268 17.6739 15 19 15V16.7178C18.1295 16.7178 17.2947 17.0636 16.6791 17.6791C16.0636 18.2947 15.7178 19.1295 15.7178 20C15.7178 20.8705 16.0636 21.7053 16.6791 22.3209C17.2947 22.9364 18.1295 23.2822 19 23.2822V25Z"/>
</mask>
<path d="M19 25C17.6739 25 16.4021 24.4732 15.4645 23.5355C14.5268 22.5979 14 21.3261 14 20C14 18.6739 14.5268 17.4021 15.4645 16.4645C16.4021 15.5268 17.6739 15 19 15V16.7178C18.1295 16.7178 17.2947 17.0636 16.6791 17.6791C16.0636 18.2947 15.7178 19.1295 15.7178 20C15.7178 20.8705 16.0636 21.7053 16.6791 22.3209C17.2947 22.9364 18.1295 23.2822 19 23.2822V25Z" fill="white" stroke="#07A8D7" stroke-width="3" mask="url(#path-4-inside-1_1567_38019)"/>
<mask id="path-5-inside-2_1567_38019" fill="white">
<path d="M21 15C22.3261 15 23.5979 15.5268 24.5355 16.4645C25.4732 17.4021 26 18.6739 26 20C26 21.3261 25.4732 22.5979 24.5355 23.5355C23.5979 24.4732 22.3261 25 21 25L21 23.2822C21.8705 23.2822 22.7053 22.9364 23.3209 22.3209C23.9364 21.7053 24.2822 20.8705 24.2822 20C24.2822 19.1295 23.9364 18.2947 23.3209 17.6791C22.7053 17.0636 21.8705 16.7178 21 16.7178L21 15Z"/>
</mask>
<path d="M21 15C22.3261 15 23.5979 15.5268 24.5355 16.4645C25.4732 17.4021 26 18.6739 26 20C26 21.3261 25.4732 22.5979 24.5355 23.5355C23.5979 24.4732 22.3261 25 21 25L21 23.2822C21.8705 23.2822 22.7053 22.9364 23.3209 22.3209C23.9364 21.7053 24.2822 20.8705 24.2822 20C24.2822 19.1295 23.9364 18.2947 23.3209 17.6791C22.7053 17.0636 21.8705 16.7178 21 16.7178L21 15Z" fill="white" stroke="#7E7E7E" stroke-width="3" mask="url(#path-5-inside-2_1567_38019)"/>
<rect x="0.75" y="0.75" width="38.5" height="38.5" rx="19.25" stroke="#E8E9E9" stroke-width="1.5"/>
</svg>
