<svg width="40" height="40" viewBox="0 0 40 40" fill="none" xmlns="http://www.w3.org/2000/svg">
<rect x="0.75" y="0.75" width="38.5" height="38.5" rx="19.25" fill="white"/>
<path d="M22.4247 11.6433L20.0001 8.99995M20.0001 8.99995L17.6028 11.6433M20.0001 8.99995L20.0001 27.4931" stroke="#07A8D7" stroke-width="1.5"/>
<path d="M17.5749 28.3572L19.9995 31.0005M19.9995 31.0005L22.3968 28.3572M19.9995 31.0005L19.9995 12.5073" stroke="#07A8D7" stroke-width="1.5"/>
<path d="M28.3568 22.4247L31.0001 20M31.0001 20L28.3568 17.6028M31.0001 20L12.5069 20" stroke="#07A8D7" stroke-width="1.5"/>
<path d="M11.6432 17.5753L8.99993 20M8.99993 20L11.6432 22.3972M8.99993 20L27.4931 20" stroke="#07A8D7" stroke-width="1.5"/>
<rect x="0.75" y="0.75" width="38.5" height="38.5" rx="19.25" stroke="#E8E9E9" stroke-width="1.5"/>
</svg>
