<svg width="40" height="40" viewBox="0 0 40 40" fill="none" xmlns="http://www.w3.org/2000/svg">
<rect x="0.75" y="0.75" width="38.5" height="38.5" rx="19.25" fill="white"/>
<path d="M30.5 10H12.5C11.1193 10 10 11.1193 10 12.5V12.5C10 13.8807 11.1193 15 12.5 15H20" stroke="#E53B10" stroke-width="1.5"/>
<path d="M20 20H12.5C11.1193 20 10 21.1193 10 22.5V22.5C10 23.8807 11.1193 25 12.5 25H20" stroke="#E53B10" stroke-width="1.5"/>
<path d="M20 15H27.5C28.8807 15 30 16.1193 30 17.5V17.5C30 18.8807 28.8807 20 27.5 20H20" stroke="#E53B10" stroke-width="1.5"/>
<path d="M20 25H27.5C28.8807 25 30 26.1193 30 27.5V27.5C30 28.8807 28.8807 30 27.5 30H9.5" stroke="#E53B10" stroke-width="1.5"/>
<rect x="0.75" y="0.75" width="38.5" height="38.5" rx="19.25" stroke="#E8E9E9" stroke-width="1.5"/>
</svg>
