<svg width="40" height="40" viewBox="0 0 40 40" fill="none" xmlns="http://www.w3.org/2000/svg">
<path d="M0 20C0 8.95431 8.95431 0 20 0V0C31.0457 0 40 8.95431 40 20V20C40 31.0457 31.0457 40 20 40V40C8.95431 40 0 31.0457 0 20V20Z" fill="white"/>
<path d="M15 20L14.3146 19.6954L15 20ZM14.2635 21.657L13.5782 21.3524L14.2635 21.657ZM14.2635 27.343L14.9489 27.0384L14.2635 27.343ZM14.3146 11.3046L15.0511 12.9616L16.4218 12.3524L15.6854 10.6954L14.3146 11.3046ZM15.0511 18.0384L14.3146 19.6954L15.6854 20.3046L16.4218 18.6476L15.0511 18.0384ZM14.3146 19.6954L13.5782 21.3524L14.9489 21.9616L15.6854 20.3046L14.3146 19.6954ZM13.5782 27.6476L14.3146 29.3046L15.6854 28.6954L14.9489 27.0384L13.5782 27.6476ZM13.5782 21.3524C12.6876 23.3563 12.6876 25.6437 13.5782 27.6476L14.9489 27.0384C14.2307 25.4223 14.2307 23.5777 14.9489 21.9616L13.5782 21.3524ZM15.0511 12.9616C15.7693 14.5777 15.7693 16.4223 15.0511 18.0384L16.4218 18.6476C17.3124 16.6437 17.3124 14.3563 16.4218 12.3524L15.0511 12.9616Z" fill="#E53B10"/>
<path d="M20 20L19.3146 19.6954L20 20ZM19.2635 21.657L18.5782 21.3524L19.2635 21.657ZM19.2635 27.343L19.9489 27.0384L19.2635 27.343ZM19.3146 11.3046L20.0511 12.9616L21.4218 12.3524L20.6854 10.6954L19.3146 11.3046ZM20.0511 18.0384L19.3146 19.6954L20.6854 20.3046L21.4218 18.6476L20.0511 18.0384ZM19.3146 19.6954L18.5782 21.3524L19.9489 21.9616L20.6854 20.3046L19.3146 19.6954ZM18.5782 27.6476L19.3146 29.3046L20.6854 28.6954L19.9489 27.0384L18.5782 27.6476ZM18.5782 21.3524C17.6876 23.3563 17.6876 25.6437 18.5782 27.6476L19.9489 27.0384C19.2307 25.4223 19.2307 23.5777 19.9489 21.9616L18.5782 21.3524ZM20.0511 12.9616C20.7693 14.5777 20.7693 16.4223 20.0511 18.0384L21.4218 18.6476C22.3124 16.6437 22.3124 14.3563 21.4218 12.3524L20.0511 12.9616Z" fill="#E53B10"/>
<path d="M25 20L24.3146 19.6954L25 20ZM24.2635 21.657L23.5782 21.3524L24.2635 21.657ZM24.2635 27.343L24.9489 27.0384L24.2635 27.343ZM24.3146 11.3046L25.0511 12.9616L26.4218 12.3524L25.6854 10.6954L24.3146 11.3046ZM25.0511 18.0384L24.3146 19.6954L25.6854 20.3046L26.4218 18.6476L25.0511 18.0384ZM24.3146 19.6954L23.5782 21.3524L24.9489 21.9616L25.6854 20.3046L24.3146 19.6954ZM23.5782 27.6476L24.3146 29.3046L25.6854 28.6954L24.9489 27.0384L23.5782 27.6476ZM23.5782 21.3524C22.6876 23.3563 22.6876 25.6437 23.5782 27.6476L24.9489 27.0384C24.2307 25.4223 24.2307 23.5777 24.9489 21.9616L23.5782 21.3524ZM25.0511 12.9616C25.7693 14.5777 25.7693 16.4223 25.0511 18.0384L26.4218 18.6476C27.3124 16.6437 27.3124 14.3563 26.4218 12.3524L25.0511 12.9616Z" fill="#E53B10"/>
<path d="M20 38.5C9.78273 38.5 1.5 30.2173 1.5 20H-1.5C-1.5 31.8741 8.12588 41.5 20 41.5V38.5ZM38.5 20C38.5 30.2173 30.2173 38.5 20 38.5V41.5C31.8741 41.5 41.5 31.8741 41.5 20H38.5ZM20 1.5C30.2173 1.5 38.5 9.78273 38.5 20H41.5C41.5 8.12588 31.8741 -1.5 20 -1.5V1.5ZM20 -1.5C8.12588 -1.5 -1.5 8.12588 -1.5 20H1.5C1.5 9.78273 9.78273 1.5 20 1.5V-1.5Z" fill="#E8E9E9"/>
</svg>
