<svg width="40" height="40" viewBox="0 0 40 40" fill="none" xmlns="http://www.w3.org/2000/svg">
<rect x="0.75" y="0.75" width="38.5" height="38.5" rx="19.25" fill="white"/>
<path d="M14.121 22.2611C14.121 24.4997 12.3062 26.3145 10.0676 26.3145C7.82894 26.3145 6.01416 24.4997 6.01416 22.2611C6.01416 21.6127 6.25958 20.7997 6.6913 19.897C7.11675 19.0074 7.69151 18.095 8.27816 17.2657C8.86314 16.4387 9.44974 15.7086 9.89081 15.1847C9.95281 15.111 10.0119 15.0415 10.0676 14.9765C10.1233 15.0415 10.1823 15.111 10.2443 15.1847C10.6854 15.7086 11.272 16.4387 11.857 17.2657C12.4436 18.095 13.0184 19.0074 13.4439 19.897C13.8756 20.7997 14.121 21.6127 14.121 22.2611Z" stroke="#07A8D7" stroke-width="1.5"/>
<path d="M34.25 22.0851C34.25 23.8127 32.8495 25.2133 31.1218 25.2133C29.3942 25.2133 27.9937 23.8127 27.9937 22.0851C27.9937 21.591 28.1826 20.9415 28.5297 20.1948C28.8702 19.4625 29.3312 18.7025 29.8034 18.0066C30.2739 17.313 30.746 16.697 31.1012 16.2538C31.1081 16.2452 31.115 16.2366 31.1218 16.2281C31.1287 16.2366 31.1355 16.2452 31.1425 16.2538C31.4976 16.697 31.9697 17.313 32.4403 18.0066C32.9125 18.7025 33.3735 19.4625 33.7139 20.1948C34.061 20.9415 34.25 21.591 34.25 22.0851Z" stroke="#07A8D7" stroke-width="1.5"/>
<path d="M21.1214 19.1567L23.9499 16.3283M23.9499 16.3283L21.1214 13.4998M23.9499 16.3283H17.2933" stroke="#7E7E7E" stroke-width="1.5"/>
<path d="M20.1217 21.4998L17.2933 24.3282M17.2933 24.3282L20.1217 27.1566M17.2933 24.3282L23.9499 24.3282" stroke="#7E7E7E" stroke-width="1.5"/>
<rect x="0.75" y="0.75" width="38.5" height="38.5" rx="19.25" stroke="#E8E9E9" stroke-width="1.5"/>
</svg>
