<svg width="40" height="40" viewBox="0 0 40 40" fill="none" xmlns="http://www.w3.org/2000/svg">
<path d="M20 -8.74228e-07C31.0457 -3.91405e-07 40 8.95431 40 20V20C40 31.0457 31.0457 40 20 40V40C8.9543 40 -1.35705e-06 31.0457 -8.74228e-07 20V20C-3.91405e-07 8.9543 8.95431 -1.35705e-06 20 -8.74228e-07V-8.74228e-07Z" fill="white"/>
<path d="M20 17L20.3046 16.3146L20 17ZM18.343 16.2635L18.6476 15.5782L18.343 16.2635ZM12.657 16.2635L12.9616 16.9489L12.657 16.2635ZM28.6954 16.3146L27.0384 17.0511L27.6476 18.4218L29.3046 17.6854L28.6954 16.3146ZM21.9616 17.0511L20.3046 16.3146L19.6954 17.6854L21.3524 18.4218L21.9616 17.0511ZM20.3046 16.3146L18.6476 15.5782L18.0384 16.9489L19.6954 17.6854L20.3046 16.3146ZM12.3524 15.5782L10.6954 16.3146L11.3046 17.6854L12.9616 16.9489L12.3524 15.5782ZM18.6476 15.5782C16.6437 14.6876 14.3563 14.6876 12.3524 15.5782L12.9616 16.9489C14.5777 16.2307 16.4223 16.2307 18.0384 16.9489L18.6476 15.5782ZM27.0384 17.0511C25.4223 17.7693 23.5777 17.7693 21.9616 17.0511L21.3524 18.4218C23.3563 19.3124 25.6437 19.3124 27.6476 18.4218L27.0384 17.0511Z" fill="#07A8D7"/>
<path d="M20 22L20.3046 21.3146L20 22ZM18.343 21.2635L18.6476 20.5782L18.343 21.2635ZM12.657 21.2635L12.9616 21.9489L12.657 21.2635ZM28.6954 21.3146L27.0384 22.0511L27.6476 23.4218L29.3046 22.6854L28.6954 21.3146ZM21.9616 22.0511L20.3046 21.3146L19.6954 22.6854L21.3524 23.4218L21.9616 22.0511ZM20.3046 21.3146L18.6476 20.5782L18.0384 21.9489L19.6954 22.6854L20.3046 21.3146ZM12.3524 20.5782L10.6954 21.3146L11.3046 22.6854L12.9616 21.9489L12.3524 20.5782ZM18.6476 20.5782C16.6437 19.6876 14.3563 19.6876 12.3524 20.5782L12.9616 21.9489C14.5777 21.2307 16.4223 21.2307 18.0384 21.9489L18.6476 20.5782ZM27.0384 22.0511C25.4223 22.7693 23.5777 22.7693 21.9616 22.0511L21.3524 23.4218C23.3563 24.3124 25.6437 24.3124 27.6476 23.4218L27.0384 22.0511Z" fill="#07A8D7"/>
<path d="M1.5 20C1.5 9.78273 9.78273 1.5 20 1.5L20 -1.5C8.12588 -1.5 -1.5 8.12588 -1.5 20L1.5 20ZM20 38.5C9.78273 38.5 1.5 30.2173 1.5 20L-1.5 20C-1.5 31.8741 8.12588 41.5 20 41.5L20 38.5ZM38.5 20C38.5 30.2173 30.2173 38.5 20 38.5L20 41.5C31.8741 41.5 41.5 31.8741 41.5 20L38.5 20ZM41.5 20C41.5 8.12588 31.8741 -1.5 20 -1.5L20 1.5C30.2173 1.5 38.5 9.78273 38.5 20L41.5 20Z" fill="#E8E9E9"/>
</svg>
