<svg width="40" height="40" viewBox="0 0 40 40" fill="none" xmlns="http://www.w3.org/2000/svg">
<rect x="0.75" y="0.75" width="38.5" height="38.5" rx="19.25" fill="white"/>
<line x1="20.621" y1="13" x2="20.621" y2="27" stroke="#7E7E7E" stroke-width="1.5"/>
<path d="M32.0063 22.0292C32.0063 23.7568 30.6058 25.1574 28.8782 25.1574C27.1505 25.1574 25.75 23.7568 25.75 22.0292C25.75 21.535 25.939 20.8856 26.2861 20.1389C26.6265 19.4066 27.0875 18.6466 27.5597 17.9507C28.0303 17.2571 28.5024 16.6411 28.8575 16.1979C28.8644 16.1892 28.8713 16.1807 28.8782 16.1721C28.885 16.1807 28.8919 16.1892 28.8988 16.1979C29.2539 16.6411 29.726 17.2571 30.1966 17.9507C30.6688 18.6466 31.1298 19.4066 31.4703 20.1389C31.8174 20.8856 32.0063 21.535 32.0063 22.0292Z" stroke="#07A8D7" stroke-width="1.5"/>
<path d="M15.0063 22.0292C15.0063 23.7568 13.6058 25.1574 11.8782 25.1574C10.1505 25.1574 8.75 23.7568 8.75 22.0292C8.75 21.535 8.93897 20.8856 9.28607 20.1389C9.62652 19.4066 10.0875 18.6466 10.5597 17.9507C11.0303 17.2571 11.5024 16.6411 11.8575 16.1979C11.8644 16.1892 11.8713 16.1807 11.8782 16.1721C11.885 16.1807 11.8919 16.1892 11.8988 16.1979C12.2539 16.6411 12.726 17.2571 13.1966 17.9507C13.6688 18.6466 14.1298 19.4066 14.4703 20.1389C14.8174 20.8856 15.0063 21.535 15.0063 22.0292Z" stroke="#7E7E7E" stroke-width="1.5"/>
<rect x="0.75" y="0.75" width="38.5" height="38.5" rx="19.25" stroke="#E8E9E9" stroke-width="1.5"/>
</svg>
