<svg width="202" height="48" viewBox="0 0 202 48" fill="none" xmlns="http://www.w3.org/2000/svg">
<path d="M130.803 20.087C130.803 22.2259 129.331 23.5069 126.864 23.5069H124.263V16.6728H126.864C129.331 16.6728 130.803 17.9482 130.803 20.087ZM134.714 20.087C134.714 15.9561 131.548 13.0667 127.017 13.0667H120.414V34.9348H124.263V27.1074H127.017C131.548 27.1074 134.714 24.2236 134.714 20.087Z" fill="#1B5B71"/>
<path d="M178.755 19.5457C178.755 21.3798 177.53 22.3843 175.301 22.3843H172.333V16.645H175.301C177.53 16.645 178.755 17.6721 178.755 19.5457ZM182.666 19.4216C182.666 15.7421 179.708 13.0728 175.64 13.0728H168.489V34.9352H172.338V25.776H174.127L180.628 34.9409H185.25L178.331 25.3641C181.052 24.4442 182.666 22.2376 182.666 19.4216Z" fill="#1B5B71"/>
<path d="M41.4789 33.8012H17.5904L24.1763 22.7175L26.4619 26.4196L24.3682 29.9411H34.6617L22.1559 9.11698L24.4754 5.46006L41.4789 33.8012ZM21.1571 17.8417L11.1796 33.8012H6.62534L18.9223 14.2242L21.1571 17.8417ZM48.0478 24.0042C48.0478 10.7536 37.2915 0.00854492 24.0239 0.00854492C10.7563 0.00854492 0 10.7536 0 24.0042C0 37.2549 10.7563 47.9999 24.0239 47.9999C37.2915 47.9999 48.0478 37.2549 48.0478 24.0042Z" fill="#1B5B71"/>
<path d="M160.747 20.8955C159.026 20.8955 157.638 22.2894 157.638 24.005C157.638 25.7206 159.032 27.1145 160.747 27.1145C162.463 27.1145 163.857 25.7206 163.857 24.005C163.862 22.2894 162.468 20.8955 160.747 20.8955Z" fill="#1B5B71"/>
<path d="M143.343 31.0296V29.6244H143.331L143.337 26.086H148.856L149.488 26.0803L147.005 22.1751H143.343V16.9775L152.761 16.9719V13.0723H143.405V13.0667H139.432H139.375V22.1751V26.086V34.9404H152.547L155.109 34.9291L152.632 31.0296H143.343Z" fill="#1B5B71"/>
<path d="M187.005 13.0728V16.8538H192.559V34.9352H196.407V16.8538H202V13.0728H187.005Z" fill="#1B5B71"/>
<path d="M69.0355 21.7751L67.5287 21.1882C65.8921 20.5336 64.5377 19.9015 64.5377 18.8236C64.5377 17.3959 66.0163 16.5381 67.4497 16.5381C68.9057 16.5381 69.803 17.046 70.6438 18.3439L71.0671 18.9929L74.4813 17.046L74.0412 16.3236C72.6867 14.1001 70.3109 12.8247 67.5117 12.8247C63.4485 12.8247 60.3841 15.3699 60.3841 18.7446C60.3841 22.1589 63.0591 23.5246 65.8131 24.6363L67.2804 25.2063C69.47 26.098 70.8131 26.7244 70.8131 28.3835C70.8131 30.0822 69.1032 31.4648 67.0095 31.4648C65.119 31.4648 63.5952 30.2233 63.3074 28.44L63.1663 27.554L59.0636 28.5754L59.2442 29.3598C60.0625 32.8926 63.1325 35.1725 67.0659 35.1725C71.496 35.1725 74.9723 32.0969 74.9723 28.1634C74.961 24.4049 71.9023 22.8982 69.0355 21.7751Z" fill="#1B5B71"/>
<path d="M84.1597 31.0018V13.0728H80.1868V34.9352H93.1779L94.4363 34.9183L92.0717 31.0018H84.1597Z" fill="#1B5B71"/>
<path d="M94.5826 16.978H100.102V34.9352H104.075V16.978H109.628V13.0728H94.5826V16.978Z" fill="#1B5B71"/>
</svg>
