<svg width="24" height="24" viewBox="0 0 24 24" fill="none" xmlns="http://www.w3.org/2000/svg">
<path fill-rule="evenodd" clip-rule="evenodd" d="M5 11.1455C4.99956 8.21437 7.06975 5.69108 9.94452 5.11883C12.8193 4.54659 15.698 6.08477 16.82 8.79267C17.9421 11.5006 16.995 14.624 14.558 16.2528C12.121 17.8815 8.87287 17.562 6.8 15.4895C5.64763 14.3376 5.00014 12.775 5 11.1455Z" stroke="#3F3F40" stroke-width="1.5" stroke-linecap="round" stroke-linejoin="round"/>
<path d="M16.0196 14.9599L15.4893 14.4296L14.4286 15.4902L14.9589 16.0206L16.0196 14.9599ZM18.4699 19.5316L19.0003 20.0619L20.0609 19.0012L19.5306 18.4709L18.4699 19.5316ZM14.9589 16.0206L18.4699 19.5316L19.5306 18.4709L16.0196 14.9599L14.9589 16.0206Z" fill="#3F3F40"/>
</svg>
